<?xml version="1.0" encoding="UTF-8" standalone="no"?>
<!-- Created with Inkscape (http://www.inkscape.org/) -->

<svg
   xmlns:dc="http://purl.org/dc/elements/1.1/"
   xmlns:cc="http://creativecommons.org/ns#"
   xmlns:rdf="http://www.w3.org/1999/02/22-rdf-syntax-ns#"
   xmlns:svg="http://www.w3.org/2000/svg"
   xmlns="http://www.w3.org/2000/svg"
   xmlns:sodipodi="http://sodipodi.sourceforge.net/DTD/sodipodi-0.dtd"
   xmlns:inkscape="http://www.inkscape.org/namespaces/inkscape"
   width="1271.7736"
   height="125.02737"
   id="svg2"
   version="1.1"
   inkscape:version="0.48.4 r9939"
   sodipodi:docname="hanging_blocks.svg">
  <defs
     id="defs4" />
  <sodipodi:namedview
     id="base"
     pagecolor="#ffffff"
     bordercolor="#666666"
     borderopacity="1.0"
     inkscape:pageopacity="0.0"
     inkscape:pageshadow="2"
     inkscape:zoom="0.59946539"
     inkscape:cx="671.9915"
     inkscape:cy="416.46226"
     inkscape:document-units="px"
     inkscape:current-layer="layer1"
     showgrid="false"
     inkscape:window-width="1366"
     inkscape:window-height="760"
     inkscape:window-x="0"
     inkscape:window-y="0"
     inkscape:window-maximized="1"
     fit-margin-top="0"
     fit-margin-left="0"
     fit-margin-right="0"
     fit-margin-bottom="0" />
  <metadata
     id="metadata7">
    <rdf:RDF>
      <cc:Work
         rdf:about="">
        <dc:format>image/svg+xml</dc:format>
        <dc:type
           rdf:resource="http://purl.org/dc/dcmitype/StillImage" />
        <dc:title />
      </cc:Work>
    </rdf:RDF>
  </metadata>
  <g
     inkscape:label="Layer 1"
     inkscape:groupmode="layer"
     id="layer1"
     transform="translate(-34.286621,-235.27054)">
    <path
       style="fill:#ffffff;fill-opacity:1;stroke:#000000;stroke-width:2;stroke-linecap:butt;stroke-linejoin:miter;stroke-miterlimit:4;stroke-opacity:1;stroke-dasharray:none"
       d="m 35.286621,257.29654 c 246.607829,-0.40647 406.744859,1.58879 641.032259,-1.90578"
       id="path3757"
       inkscape:connector-curvature="0"
       sodipodi:nodetypes="cc" />
    <path
       style="fill:#ffffff;fill-opacity:1;stroke:#000000;stroke-width:1px;stroke-linecap:butt;stroke-linejoin:miter;stroke-opacity:1"
       d="m 73.906706,266.23487 c 0.31584,45.16521 0.31584,45.16521 0.31584,45.16521"
       id="path4134"
       inkscape:connector-curvature="0" />
    <path
       style="fill:#ffffff;fill-opacity:1;stroke:#000000;stroke-width:1px;stroke-linecap:butt;stroke-linejoin:miter;stroke-opacity:1"
       d="m 137.07483,263.70815 c 0,55.58795 0,55.58795 0,55.58795"
       id="path4136"
       inkscape:connector-curvature="0" />
    <path
       style="fill:#ffffff;fill-opacity:1;stroke:#000000;stroke-width:1px;stroke-linecap:butt;stroke-linejoin:miter;stroke-opacity:1"
       d="m 260.25267,262.44479 c 0.63168,53.6929 0.63168,53.6929 0.63168,53.6929"
       id="path4142"
       inkscape:connector-curvature="0" />
    <path
       style="fill:#ffffff;fill-opacity:1;stroke:#000000;stroke-width:1px;stroke-linecap:butt;stroke-linejoin:miter;stroke-opacity:1"
       d="m 195.50535,268.44576 c 1.5792,55.90379 1.5792,55.90379 1.5792,55.90379"
       id="path4140"
       inkscape:connector-curvature="0" />
    <path
       style="fill:#ffffff;fill-opacity:1;stroke:#000000;stroke-width:0.47720703px;stroke-linecap:butt;stroke-linejoin:miter;stroke-opacity:1"
       d="m 200.52036,269.82722 c -1.62071,0.0407 -2.95866,0.9057 -4.19152,4.10467 l -0.56942,4.94109 c 1.62497,0.86671 1.36462,4.39751 -0.60926,4.78014 l -0.42463,3.86302 c 0.26537,0.3996 0.54575,0.79793 -0.11447,1.27617 l -0.394,2.67835 1.66295,7.90544 c 0.19325,1.0579 0.3606,1.96908 1.07586,2.1311 1.36928,-11.85966 2.27153,-21.06604 3.56449,-31.67998 z"
       id="path3895-2-1-5-2"
       inkscape:connector-curvature="0"
       sodipodi:nodetypes="cccccccccc" />
    <path
       style="fill:#ffffff;fill-opacity:1;stroke:#000000;stroke-width:0.47720703px;stroke-linecap:butt;stroke-linejoin:miter;stroke-opacity:1"
       d="m 144.14225,268.65654 c -1.52299,-0.55575 -3.08479,-0.24089 -5.40365,2.28423 l -2.33961,4.38919 c 1.1946,1.40165 -0.34087,4.59174 -2.31771,4.22481 l -1.81003,3.43905 c 0.10057,0.46903 0.21558,0.94238 -0.57392,1.14558 l -1.34761,2.34791 -1.34811,7.96518 c -0.20765,1.05517 -0.38565,1.96433 0.22056,2.37706 5.61791,-10.53402 9.82944,-18.77019 14.92008,-28.17301 z"
       id="path3895-2-1-5-4"
       inkscape:connector-curvature="0"
       sodipodi:nodetypes="cccccccccc" />
    <path
       style="fill:#ffffff;fill-opacity:1;stroke:#000000;stroke-width:0.47720703px;stroke-linecap:butt;stroke-linejoin:miter;stroke-opacity:1"
       d="m 261.80948,264.34813 c -1.3295,0.9278 -1.96848,2.38727 -1.23257,5.73567 l 2.25014,4.43571 c 1.83349,-0.17324 3.56364,2.9156 2.12814,4.3234 l 1.77633,3.45658 c 0.44175,0.18698 0.89532,0.3646 0.60837,1.12766 l 1.1485,2.45147 5.7472,5.67724 c 0.74466,0.77588 1.3868,1.44364 2.0728,1.18431 -5.39868,-10.64804 -9.72361,-18.82523 -14.49891,-28.39204 z"
       id="path3895-2-1-5-7"
       inkscape:connector-curvature="0"
       sodipodi:nodetypes="cccccccccc" />
    <path
       style="fill:#ffffff;fill-opacity:1;stroke:#000000;stroke-width:1px;stroke-linecap:butt;stroke-linejoin:miter;stroke-opacity:1"
       d="m 387.2206,259.28638 c 3.15841,58.11467 3.15841,58.11467 3.15841,58.11467"
       id="path4144"
       inkscape:connector-curvature="0" />
    <path
       style="fill:#ffffff;fill-opacity:1;stroke:#000000;stroke-width:0.47720703px;stroke-linecap:butt;stroke-linejoin:miter;stroke-opacity:1"
       d="m 381.87287,265.3138 c 1.59793,-0.27384 3.07804,0.31578 4.90688,3.21556 l 1.51523,4.73736 c -1.42642,1.1649 -0.48745,4.5785 1.52316,4.57174 l 1.16448,3.70774 c -0.18299,0.44341 -0.38096,0.88849 0.35935,1.22987 l 0.90508,2.55139 -0.10101,8.07783 c 0.0152,1.07531 0.0274,2.00164 -0.64293,2.29905 -3.63939,-11.37019 -6.3069,-20.22772 -9.63024,-30.39054 z"
       id="path3895-2-6-8-8"
       inkscape:connector-curvature="0"
       sodipodi:nodetypes="cccccccccc" />
    <path
       style="fill:#ffffff;fill-opacity:1;stroke:#000000;stroke-width:0.47720703px;stroke-linecap:butt;stroke-linejoin:miter;stroke-opacity:1"
       d="m 77.918304,269.31854 c -1.616968,-0.11736 -3.032803,0.61324 -4.571363,3.67693 l -1.047945,4.86214 c 1.532827,1.02085 0.929843,4.50951 -1.071915,4.69807 l -0.798853,3.8033 c 0.225186,0.42355 0.46545,0.84729 -0.238206,1.25896 l -0.652982,2.62724 0.885098,8.02982 c 0.08935,1.07169 0.167113,1.99484 0.863195,2.22575 2.517827,-11.66992 4.312423,-20.74466 6.632971,-31.18221 z"
       id="path3895-2-1-5"
       inkscape:connector-curvature="0"
       sodipodi:nodetypes="cccccccccc" />
    <rect
       style="fill:#ffffff;fill-opacity:1;stroke:#190000;stroke-width:2;stroke-linecap:butt;stroke-linejoin:round;stroke-miterlimit:4;stroke-opacity:1;stroke-dasharray:none;stroke-dashoffset:0"
       id="rect2987-7"
       width="36.103344"
       height="36.103344"
       x="118.18149"
       y="239.69154" />
    <rect
       style="fill:#ffffff;fill-opacity:1;stroke:#190000;stroke-width:2;stroke-linecap:butt;stroke-linejoin:round;stroke-miterlimit:4;stroke-opacity:1;stroke-dasharray:none;stroke-dashoffset:0"
       id="rect2987-0"
       width="36.103344"
       height="36.103344"
       x="-191.61191"
       y="290.32645"
       transform="matrix(0.60991684,-0.79246542,0.79246542,0.60991684,0,0)" />
    <rect
       style="fill:#ffffff;fill-opacity:1;stroke:#190000;stroke-width:2;stroke-linecap:butt;stroke-linejoin:round;stroke-miterlimit:4;stroke-opacity:1;stroke-dasharray:none;stroke-dashoffset:0"
       id="rect2987-7-5"
       width="36.103344"
       height="36.103344"
       x="180.21286"
       y="240.14917" />
    <rect
       style="fill:#ffffff;fill-opacity:1;stroke:#190000;stroke-width:2;stroke-linecap:butt;stroke-linejoin:round;stroke-miterlimit:4;stroke-opacity:1;stroke-dasharray:none;stroke-dashoffset:0"
       id="rect2987-7-5-4"
       width="36.103344"
       height="36.103344"
       x="242.74611"
       y="239.7025" />
    <rect
       style="fill:#ffffff;fill-opacity:1;stroke:#190000;stroke-width:2;stroke-linecap:butt;stroke-linejoin:round;stroke-miterlimit:4;stroke-opacity:1;stroke-dasharray:none;stroke-dashoffset:0"
       id="rect2987"
       width="36.103344"
       height="36.103344"
       x="55.758667"
       y="239.66962" />
    <rect
       style="fill:#ffffff;fill-opacity:1;stroke:#190000;stroke-width:2;stroke-linecap:butt;stroke-linejoin:round;stroke-miterlimit:4;stroke-opacity:1;stroke-dasharray:none;stroke-dashoffset:0"
       id="rect2987-0-6"
       width="36.103344"
       height="36.103344"
       x="-138.08458"
       y="351.5751"
       transform="matrix(0.65884431,-0.75227932,0.75227932,0.65884431,0,0)" />
    <rect
       style="fill:#ffffff;fill-opacity:1;stroke:#190000;stroke-width:2;stroke-linecap:butt;stroke-linejoin:round;stroke-miterlimit:4;stroke-opacity:1;stroke-dasharray:none;stroke-dashoffset:0"
       id="rect2987-0-6-7"
       width="36.103344"
       height="36.103344"
       x="-92.445282"
       y="400.46738"
       transform="matrix(0.65884431,-0.75227932,0.75227932,0.65884431,0,0)" />
    <path
       style="fill:#ffffff;fill-opacity:1;stroke:#000000;stroke-width:0.47720703px;stroke-linecap:butt;stroke-linejoin:miter;stroke-opacity:1"
       d="m 70.369812,267.54506 c 1.512358,0.58407 2.48089,1.8491 2.564541,5.2764 l -1.127673,4.84426 c -1.821916,0.26891 -2.765725,3.68118 -1.035967,4.70613 l -0.90098,3.78041 c -0.384429,0.28691 -0.782574,0.56755 -0.321958,1.24019 l -0.530903,2.6546 -4.227874,6.88379 c -0.538242,0.93102 -1.002602,1.73265 -1.730647,1.64435 2.704257,-11.62813 4.954824,-20.60067 7.311461,-31.03013 z"
       id="path3895-2-6"
       inkscape:connector-curvature="0"
       sodipodi:nodetypes="cccccccccc" />
    <path
       style="fill:#ffffff;fill-opacity:1;stroke:#000000;stroke-width:0.47720703px;stroke-linecap:butt;stroke-linejoin:miter;stroke-opacity:1"
       d="m 137.36818,264.88336 c 1.29454,0.97597 1.87955,2.4579 1.02127,5.77705 l -2.41139,4.35015 c -1.8259,-0.24039 -3.66823,2.78288 -2.28535,4.24241 l -1.90197,3.38907 c -0.44832,0.17064 -0.90811,0.3315 -0.64934,1.10458 l -1.23768,2.40767 -5.95166,5.46253 c -0.77267,0.748 -1.43883,1.39178 -2.11485,1.10745 5.78577,-10.44276 10.40784,-18.45575 15.53097,-27.84091 z"
       id="path3895-2-6-3"
       inkscape:connector-curvature="0"
       sodipodi:nodetypes="cccccccccc" />
    <path
       style="fill:#ffffff;fill-opacity:1;stroke:#000000;stroke-width:0.47720703px;stroke-linecap:butt;stroke-linejoin:miter;stroke-opacity:1"
       d="m 192.83502,268.79735 c 1.56206,0.434 2.64919,1.59869 3.06625,5.00154 l -0.65052,4.93106 c -1.78706,0.44508 -2.39405,3.93305 -0.5727,4.78466 l -0.5285,3.85018 c -0.35465,0.32299 -0.72358,0.64107 -0.19964,1.26565 l -0.26984,2.69369 -3.53733,7.26283 c -0.44501,0.97902 -0.82909,1.82206 -1.56227,1.80509 1.55889,-11.83623 2.92489,-20.9853 4.25455,-31.5947 z"
       id="path3895-2-6-0"
       inkscape:connector-curvature="0"
       sodipodi:nodetypes="cccccccccc" />
    <path
       style="fill:#ffffff;fill-opacity:1;stroke:#000000;stroke-width:0.47720703px;stroke-linecap:butt;stroke-linejoin:miter;stroke-opacity:1"
       d="m 254.83069,267.72769 c 1.54236,-0.49948 3.09156,-0.12753 5.3162,2.48099 l 2.17696,4.47206 c -1.24522,1.35687 0.17215,4.60116 2.16114,4.30701 l 1.68261,3.50316 c -0.11771,0.46502 -0.25002,0.93383 0.5315,1.16586 l 1.26055,2.39578 1.05492,8.00929 c 0.16874,1.06209 0.31332,1.97715 -0.30763,2.36735 -5.2276,-10.73306 -9.13407,-19.11822 -13.87625,-28.7015 z"
       id="path3895-2-6-8"
       inkscape:connector-curvature="0"
       sodipodi:nodetypes="cccccccccc" />
    <rect
       style="fill:#ffffff;fill-opacity:1;stroke:#190000;stroke-width:2;stroke-linecap:butt;stroke-linejoin:round;stroke-miterlimit:4;stroke-opacity:1;stroke-dasharray:none;stroke-dashoffset:0"
       id="rect2987-7-5-4-1"
       width="36.103344"
       height="36.103344"
       x="370.99448"
       y="239.5872" />
    <path
       style="fill:#ffffff;fill-opacity:1;stroke:#000000;stroke-width:0.47720703px;stroke-linecap:butt;stroke-linejoin:miter;stroke-opacity:1"
       d="m 389.26315,262.96672 c -1.44849,0.72819 -2.28957,2.08131 -2.03994,5.50052 l 1.59285,4.71185 c 1.83942,0.0907 3.11018,3.39514 1.48816,4.58325 l 1.26389,3.67503 c 0.41048,0.24821 0.834,0.48886 0.4409,1.20305 l 0.78621,2.59049 4.87649,6.4406 c 0.62608,0.87437 1.16615,1.62708 1.88218,1.46849 -3.82087,-11.3105 -6.93227,-20.02203 -10.29074,-30.17328 z"
       id="path3895-2-1-5-7-6"
       inkscape:connector-curvature="0"
       sodipodi:nodetypes="cccccccccc" />
    <rect
       style="fill:#ffffff;fill-opacity:1;stroke:#190000;stroke-width:2;stroke-linecap:butt;stroke-linejoin:round;stroke-miterlimit:4;stroke-opacity:1;stroke-dasharray:none;stroke-dashoffset:0"
       id="rect2987-7-5-4-1-7"
       width="36.103344"
       height="36.103344"
       x="304.44125"
       y="239.69153" />
    <rect
       style="fill:#ffffff;fill-opacity:1;stroke:#190000;stroke-width:2;stroke-linecap:butt;stroke-linejoin:round;stroke-miterlimit:4;stroke-opacity:1;stroke-dasharray:none;stroke-dashoffset:0"
       id="rect2987-0-6-7-0"
       width="36.103344"
       height="36.103344"
       x="-261.82379"
       y="218.01077"
       transform="matrix(0.50610352,-0.86247274,0.86247274,0.50610352,0,0)" />
    <rect
       style="fill:#ffffff;fill-opacity:1;stroke:#190000;stroke-width:2;stroke-linecap:butt;stroke-linejoin:round;stroke-miterlimit:4;stroke-opacity:1;stroke-dasharray:none;stroke-dashoffset:0"
       id="rect2987-0-6-7-0-6"
       width="36.103344"
       height="36.103344"
       x="45.944736"
       y="488.35422"
       transform="matrix(0.73766653,-0.67516523,0.67516523,0.73766653,0,0)" />
    <path
       style="fill:#ffffff;fill-opacity:1;stroke:#000000;stroke-width:1px;stroke-linecap:butt;stroke-linejoin:miter;stroke-opacity:1"
       d="m 454.1881,258.54532 c 3.15841,58.11467 3.15841,58.11467 3.15841,58.11467"
       id="path4144-0"
       inkscape:connector-curvature="0" />
    <path
       style="fill:#ffffff;fill-opacity:1;stroke:#000000;stroke-width:0.47720703px;stroke-linecap:butt;stroke-linejoin:miter;stroke-opacity:1"
       d="m 457.42955,265.95014 c 1.0157,1.26362 1.21944,2.84376 -0.42657,5.85109 l -3.4045,3.626 c -1.7112,-0.6808 -4.23865,1.79838 -3.2559,3.55246 l -2.67498,2.81919 c -0.47646,0.0555 -0.96167,0.0987 -0.90037,0.91161 l -1.79031,2.03066 -7.10947,3.83627 c -0.93248,0.53572 -1.73621,0.99643 -2.32184,0.55503 8.1699,-8.70513 14.6158,-15.34003 21.88394,-23.18231 z"
       id="path3895-2-6-8-8-6"
       inkscape:connector-curvature="0"
       sodipodi:nodetypes="cccccccccc" />
    <rect
       style="fill:#ffffff;fill-opacity:1;stroke:#190000;stroke-width:2;stroke-linecap:butt;stroke-linejoin:round;stroke-miterlimit:4;stroke-opacity:1;stroke-dasharray:none;stroke-dashoffset:0"
       id="rect2987-7-5-4-1-6"
       width="36.103344"
       height="36.103344"
       x="437.96198"
       y="238.84615" />
    <path
       style="fill:#ffffff;fill-opacity:1;stroke:#000000;stroke-width:0.47720703px;stroke-linecap:butt;stroke-linejoin:miter;stroke-opacity:1"
       d="m 463.07153,271.26927 c -1.34021,-0.91226 -2.93153,-0.99 -5.7988,0.88939 l -3.3445,3.68144 c 0.8144,1.6518 -1.45645,4.36795 -3.28296,3.52746 l -2.59809,2.89019 c -0.0175,0.47937 -0.0221,0.96646 -0.83731,0.96986 l -1.88224,1.94575 -3.26017,7.3914 c -0.46006,0.97203 -0.85557,1.80978 -0.36908,2.35857 8.02955,-8.83475 14.13218,-15.78669 21.37315,-23.65406 z"
       id="path3895-2-1-5-7-6-4"
       inkscape:connector-curvature="0"
       sodipodi:nodetypes="cccccccccc" />
    <rect
       style="fill:#ffffff;fill-opacity:1;stroke:#190000;stroke-width:2;stroke-linecap:butt;stroke-linejoin:round;stroke-miterlimit:4;stroke-opacity:1;stroke-dasharray:none;stroke-dashoffset:0"
       id="rect2987-0-6-7-0-6-2"
       width="36.103344"
       height="36.103344"
       x="-38.120705"
       y="544.31079"
       transform="matrix(0.55646445,-0.83087142,0.83087142,0.55646445,0,0)" />
    <path
       style="fill:#ffffff;fill-opacity:1;stroke:#000000;stroke-width:1px;stroke-linecap:butt;stroke-linejoin:miter;stroke-opacity:1"
       d="m 522.7162,258.12109 c 3.15841,58.11467 3.15841,58.11467 3.15841,58.11467"
       id="path4144-0-5"
       inkscape:connector-curvature="0" />
    <path
       style="fill:#ffffff;fill-opacity:1;stroke:#000000;stroke-width:0.47720703px;stroke-linecap:butt;stroke-linejoin:miter;stroke-opacity:1"
       d="m 516.73679,267.30692 c 1.59793,-0.27384 3.07804,0.31578 4.90688,3.21556 l 1.51523,4.73736 c -1.42642,1.1649 -0.48745,4.5785 1.52316,4.57174 l 1.16448,3.70774 c -0.18299,0.44341 -0.38096,0.88849 0.35935,1.22987 l 0.90508,2.55139 -0.10101,8.07783 c 0.0152,1.07531 0.0274,2.00164 -0.64293,2.29905 -3.63939,-11.37019 -6.3069,-20.22772 -9.63024,-30.39054 z"
       id="path3895-2-6-8-8-6-6"
       inkscape:connector-curvature="0"
       sodipodi:nodetypes="cccccccccc" />
    <rect
       style="fill:#ffffff;fill-opacity:1;stroke:#190000;stroke-width:2;stroke-linecap:butt;stroke-linejoin:round;stroke-miterlimit:4;stroke-opacity:1;stroke-dasharray:none;stroke-dashoffset:0"
       id="rect2987-7-5-4-1-6-7"
       width="36.103344"
       height="36.103344"
       x="506.49005"
       y="238.42192" />
    <path
       style="fill:#ffffff;fill-opacity:1;stroke:#000000;stroke-width:0.47720703px;stroke-linecap:butt;stroke-linejoin:miter;stroke-opacity:1"
       d="m 524.12707,264.95984 c -1.44849,0.72819 -2.28957,2.08131 -2.03994,5.50052 l 1.59285,4.71185 c 1.83942,0.0907 3.11018,3.39514 1.48816,4.58325 l 1.26389,3.67503 c 0.41048,0.24821 0.834,0.48886 0.4409,1.20305 l 0.78621,2.59049 4.87649,6.4406 c 0.62608,0.87437 1.16615,1.62708 1.88218,1.46849 -3.82087,-11.3105 -6.93227,-20.02203 -10.29074,-30.17328 z"
       id="path3895-2-1-5-7-6-4-8"
       inkscape:connector-curvature="0"
       sodipodi:nodetypes="cccccccccc" />
    <rect
       style="fill:#ffffff;fill-opacity:1;stroke:#190000;stroke-width:2;stroke-linecap:butt;stroke-linejoin:round;stroke-miterlimit:4;stroke-opacity:1;stroke-dasharray:none;stroke-dashoffset:0"
       id="rect2987-0-6-7-0-6-2-3"
       width="36.103344"
       height="36.103344"
       x="212.65572"
       y="558.20117"
       transform="matrix(0.80392876,-0.5947256,0.5947256,0.80392876,0,0)" />
    <path
       style="fill:#ffffff;fill-opacity:1;stroke:#000000;stroke-width:1px;stroke-linecap:butt;stroke-linejoin:miter;stroke-opacity:1"
       d="m 582.34415,257.72198 c 3.15841,58.11467 3.15841,58.11467 3.15841,58.11467"
       id="path4144-0-5-4"
       inkscape:connector-curvature="0" />
    <path
       style="fill:#ffffff;fill-opacity:1;stroke:#000000;stroke-width:0.47720703px;stroke-linecap:butt;stroke-linejoin:miter;stroke-opacity:1"
       d="m 576.99642,263.7494 c 1.59793,-0.27384 3.07804,0.31578 4.90688,3.21556 l 1.51523,4.73736 c -1.42642,1.1649 -0.48745,4.5785 1.52316,4.57174 l 1.16448,3.70774 c -0.18299,0.44341 -0.38096,0.88849 0.35935,1.22987 l 0.90508,2.55139 -0.10101,8.07783 c 0.0152,1.07531 0.0274,2.00164 -0.64293,2.29905 -3.63939,-11.37019 -6.3069,-20.22772 -9.63024,-30.39054 z"
       id="path3895-2-6-8-8-6-6-4"
       inkscape:connector-curvature="0"
       sodipodi:nodetypes="cccccccccc" />
    <rect
       style="fill:#ffffff;fill-opacity:1;stroke:#190000;stroke-width:2;stroke-linecap:butt;stroke-linejoin:round;stroke-miterlimit:4;stroke-opacity:1;stroke-dasharray:none;stroke-dashoffset:0"
       id="rect2987-7-5-4-1-6-7-9"
       width="36.103344"
       height="36.103344"
       x="566.11798"
       y="238.02281" />
    <path
       style="fill:#ffffff;fill-opacity:1;stroke:#000000;stroke-width:0.47720703px;stroke-linecap:butt;stroke-linejoin:miter;stroke-opacity:1"
       d="m 584.3867,261.40232 c -1.44849,0.72819 -2.28957,2.08131 -2.03994,5.50052 l 1.59285,4.71185 c 1.83942,0.0907 3.11018,3.39514 1.48816,4.58325 l 1.26389,3.67503 c 0.41048,0.24821 0.834,0.48886 0.4409,1.20305 l 0.78621,2.59049 4.87649,6.4406 c 0.62608,0.87437 1.16615,1.62708 1.88218,1.46849 -3.82087,-11.3105 -6.93227,-20.02203 -10.29074,-30.17328 z"
       id="path3895-2-1-5-7-6-4-8-0"
       inkscape:connector-curvature="0"
       sodipodi:nodetypes="cccccccccc" />
    <rect
       style="fill:#ffffff;fill-opacity:1;stroke:#190000;stroke-width:2;stroke-linecap:butt;stroke-linejoin:round;stroke-miterlimit:4;stroke-opacity:1;stroke-dasharray:none;stroke-dashoffset:0"
       id="rect2987-0-6-7-0-6-2-3-0"
       width="36.103344"
       height="36.103344"
       x="242.8288"
       y="599.5058"
       transform="matrix(0.79090481,-0.6119392,0.6119392,0.79090481,0,0)" />
    <rect
       style="fill:#ffffff;fill-opacity:1;stroke:#190000;stroke-width:2;stroke-linecap:butt;stroke-linejoin:round;stroke-miterlimit:4;stroke-opacity:1;stroke-dasharray:none;stroke-dashoffset:0"
       id="rect2987-7-5-4-1-6-7-9-6"
       width="36.103344"
       height="36.103344"
       x="625.07794"
       y="238.02281" />
    <path
       style="fill:#ffffff;fill-opacity:1;stroke:#000000;stroke-width:2;stroke-linecap:butt;stroke-linejoin:miter;stroke-miterlimit:4;stroke-opacity:1;stroke-dasharray:none"
       d="m 664.02793,255.54427 c 246.60783,-0.40647 406.74487,1.58879 641.03227,-1.90578"
       id="path3757-6"
       inkscape:connector-curvature="0"
       sodipodi:nodetypes="cc" />
    <path
       style="fill:#ffffff;fill-opacity:1;stroke:#000000;stroke-width:1px;stroke-linecap:butt;stroke-linejoin:miter;stroke-opacity:1"
       d="m 702.64802,264.4826 c 0.31584,45.16521 0.31584,45.16521 0.31584,45.16521"
       id="path4134-0"
       inkscape:connector-curvature="0" />
    <path
       style="fill:#ffffff;fill-opacity:1;stroke:#000000;stroke-width:1px;stroke-linecap:butt;stroke-linejoin:miter;stroke-opacity:1"
       d="m 765.81614,261.95588 c 0,55.58795 0,55.58795 0,55.58795"
       id="path4136-7"
       inkscape:connector-curvature="0" />
    <path
       style="fill:#ffffff;fill-opacity:1;stroke:#000000;stroke-width:1px;stroke-linecap:butt;stroke-linejoin:miter;stroke-opacity:1"
       d="m 888.99398,260.69252 c 0.63168,53.6929 0.63168,53.6929 0.63168,53.6929"
       id="path4142-2"
       inkscape:connector-curvature="0" />
    <path
       style="fill:#ffffff;fill-opacity:1;stroke:#000000;stroke-width:1px;stroke-linecap:butt;stroke-linejoin:miter;stroke-opacity:1"
       d="m 824.24666,266.69349 c 1.5792,55.90379 1.5792,55.90379 1.5792,55.90379"
       id="path4140-5"
       inkscape:connector-curvature="0" />
    <path
       style="fill:#ffffff;fill-opacity:1;stroke:#000000;stroke-width:0.47720703px;stroke-linecap:butt;stroke-linejoin:miter;stroke-opacity:1"
       d="m 829.26167,268.07495 c -1.62071,0.0407 -2.95866,0.9057 -4.19152,4.10467 l -0.56942,4.94109 c 1.62497,0.86671 1.36462,4.39751 -0.60926,4.78014 l -0.42463,3.86302 c 0.26537,0.3996 0.54575,0.79793 -0.11447,1.27617 l -0.394,2.67835 1.66295,7.90544 c 0.19325,1.0579 0.3606,1.96908 1.07586,2.1311 1.36928,-11.85966 2.27153,-21.06604 3.56449,-31.67998 z"
       id="path3895-2-1-5-2-6"
       inkscape:connector-curvature="0"
       sodipodi:nodetypes="cccccccccc" />
    <path
       style="fill:#ffffff;fill-opacity:1;stroke:#000000;stroke-width:0.47720703px;stroke-linecap:butt;stroke-linejoin:miter;stroke-opacity:1"
       d="m 772.88356,266.90427 c -1.52299,-0.55575 -3.08479,-0.24089 -5.40365,2.28423 l -2.33961,4.38919 c 1.1946,1.40165 -0.34087,4.59174 -2.31771,4.22481 l -1.81003,3.43905 c 0.10057,0.46903 0.21558,0.94238 -0.57392,1.14558 l -1.34761,2.34791 -1.34811,7.96518 c -0.20765,1.05517 -0.38565,1.96433 0.22056,2.37706 5.61791,-10.53402 9.82944,-18.77019 14.92008,-28.17301 z"
       id="path3895-2-1-5-4-3"
       inkscape:connector-curvature="0"
       sodipodi:nodetypes="cccccccccc" />
    <path
       style="fill:#ffffff;fill-opacity:1;stroke:#000000;stroke-width:0.47720703px;stroke-linecap:butt;stroke-linejoin:miter;stroke-opacity:1"
       d="m 890.55079,262.59586 c -1.3295,0.9278 -1.96848,2.38727 -1.23257,5.73567 l 2.25014,4.43571 c 1.83349,-0.17324 3.56364,2.9156 2.12814,4.3234 l 1.77633,3.45658 c 0.44175,0.18698 0.89532,0.3646 0.60837,1.12766 l 1.1485,2.45147 5.7472,5.67724 c 0.74466,0.77588 1.3868,1.44364 2.0728,1.18431 -5.39868,-10.64804 -9.72361,-18.82523 -14.49891,-28.39204 z"
       id="path3895-2-1-5-7-0"
       inkscape:connector-curvature="0"
       sodipodi:nodetypes="cccccccccc" />
    <path
       style="fill:#ffffff;fill-opacity:1;stroke:#000000;stroke-width:1px;stroke-linecap:butt;stroke-linejoin:miter;stroke-opacity:1"
       d="m 1015.9619,257.53411 c 3.1584,58.11467 3.1584,58.11467 3.1584,58.11467"
       id="path4144-8"
       inkscape:connector-curvature="0" />
    <path
       style="fill:#ffffff;fill-opacity:1;stroke:#000000;stroke-width:0.47720703px;stroke-linecap:butt;stroke-linejoin:miter;stroke-opacity:1"
       d="m 1010.6142,263.56153 c 1.5979,-0.27384 3.078,0.31578 4.9068,3.21556 l 1.5153,4.73736 c -1.4264,1.1649 -0.4875,4.5785 1.5231,4.57174 l 1.1645,3.70774 c -0.183,0.44341 -0.3809,0.88849 0.3594,1.22987 l 0.905,2.55139 -0.101,8.07783 c 0.015,1.07531 0.027,2.00164 -0.6429,2.29905 -3.6394,-11.37019 -6.3069,-20.22772 -9.6302,-30.39054 z"
       id="path3895-2-6-8-8-2"
       inkscape:connector-curvature="0"
       sodipodi:nodetypes="cccccccccc" />
    <path
       style="fill:#ffffff;fill-opacity:1;stroke:#000000;stroke-width:0.47720703px;stroke-linecap:butt;stroke-linejoin:miter;stroke-opacity:1"
       d="m 706.65961,267.56627 c -1.61696,-0.11736 -3.0328,0.61324 -4.57136,3.67693 l -1.04794,4.86214 c 1.53282,1.02085 0.92984,4.50951 -1.07192,4.69807 l -0.79885,3.8033 c 0.22518,0.42355 0.46545,0.84729 -0.23821,1.25896 l -0.65298,2.62724 0.8851,8.02982 c 0.0893,1.07169 0.16711,1.99484 0.86319,2.22575 2.51783,-11.66992 4.31243,-20.74466 6.63297,-31.18221 z"
       id="path3895-2-1-5-1"
       inkscape:connector-curvature="0"
       sodipodi:nodetypes="cccccccccc" />
    <rect
       style="fill:#ffffff;fill-opacity:1;stroke:#190000;stroke-width:2;stroke-linecap:butt;stroke-linejoin:round;stroke-miterlimit:4;stroke-opacity:1;stroke-dasharray:none;stroke-dashoffset:0"
       id="rect2987-7-9"
       width="36.103344"
       height="36.103344"
       x="746.92285"
       y="237.93927" />
    <rect
       style="fill:#ffffff;fill-opacity:1;stroke:#190000;stroke-width:2;stroke-linecap:butt;stroke-linejoin:round;stroke-miterlimit:4;stroke-opacity:1;stroke-dasharray:none;stroke-dashoffset:0"
       id="rect2987-0-3"
       width="36.103344"
       height="36.103344"
       x="193.25662"
       y="787.51343"
       transform="matrix(0.60991684,-0.79246542,0.79246542,0.60991684,0,0)" />
    <rect
       style="fill:#ffffff;fill-opacity:1;stroke:#190000;stroke-width:2;stroke-linecap:butt;stroke-linejoin:round;stroke-miterlimit:4;stroke-opacity:1;stroke-dasharray:none;stroke-dashoffset:0"
       id="rect2987-7-5-0"
       width="36.103344"
       height="36.103344"
       x="808.95422"
       y="238.3969" />
    <rect
       style="fill:#ffffff;fill-opacity:1;stroke:#190000;stroke-width:2;stroke-linecap:butt;stroke-linejoin:round;stroke-miterlimit:4;stroke-opacity:1;stroke-dasharray:none;stroke-dashoffset:0"
       id="rect2987-7-5-4-17"
       width="36.103344"
       height="36.103344"
       x="871.48743"
       y="237.95023" />
    <rect
       style="fill:#ffffff;fill-opacity:1;stroke:#190000;stroke-width:2;stroke-linecap:butt;stroke-linejoin:round;stroke-miterlimit:4;stroke-opacity:1;stroke-dasharray:none;stroke-dashoffset:0"
       id="rect2987-5"
       width="36.103344"
       height="36.103344"
       x="684.5"
       y="237.91734" />
    <rect
       style="fill:#ffffff;fill-opacity:1;stroke:#190000;stroke-width:2;stroke-linecap:butt;stroke-linejoin:round;stroke-miterlimit:4;stroke-opacity:1;stroke-dasharray:none;stroke-dashoffset:0"
       id="rect2987-0-6-6"
       width="36.103344"
       height="36.103344"
       x="277.47626"
       y="823.40967"
       transform="matrix(0.65884431,-0.75227932,0.75227932,0.65884431,0,0)" />
    <rect
       style="fill:#ffffff;fill-opacity:1;stroke:#190000;stroke-width:2;stroke-linecap:butt;stroke-linejoin:round;stroke-miterlimit:4;stroke-opacity:1;stroke-dasharray:none;stroke-dashoffset:0"
       id="rect2987-0-6-7-1"
       width="36.103344"
       height="36.103344"
       x="323.11554"
       y="872.30194"
       transform="matrix(0.65884431,-0.75227932,0.75227932,0.65884431,0,0)" />
    <path
       style="fill:#ffffff;fill-opacity:1;stroke:#000000;stroke-width:0.47720703px;stroke-linecap:butt;stroke-linejoin:miter;stroke-opacity:1"
       d="m 699.11112,265.79279 c 1.51236,0.58407 2.48089,1.8491 2.56454,5.2764 l -1.12767,4.84426 c -1.82192,0.26891 -2.76573,3.68118 -1.03597,4.70613 l -0.90098,3.78041 c -0.38443,0.28691 -0.78257,0.56755 -0.32196,1.24019 l -0.5309,2.6546 -4.22787,6.88379 c -0.53824,0.93102 -1.0026,1.73265 -1.73065,1.64435 2.70426,-11.62813 4.95482,-20.60067 7.31146,-31.03013 z"
       id="path3895-2-6-86"
       inkscape:connector-curvature="0"
       sodipodi:nodetypes="cccccccccc" />
    <path
       style="fill:#ffffff;fill-opacity:1;stroke:#000000;stroke-width:0.47720703px;stroke-linecap:butt;stroke-linejoin:miter;stroke-opacity:1"
       d="m 766.10949,263.13109 c 1.29454,0.97597 1.87955,2.4579 1.02127,5.77705 l -2.41139,4.35015 c -1.8259,-0.24039 -3.66823,2.78288 -2.28535,4.24241 l -1.90197,3.38907 c -0.44832,0.17064 -0.90811,0.3315 -0.64934,1.10458 l -1.23768,2.40767 -5.95166,5.46253 c -0.77267,0.748 -1.43883,1.39178 -2.11485,1.10745 5.78577,-10.44276 10.40784,-18.45575 15.53097,-27.84091 z"
       id="path3895-2-6-3-2"
       inkscape:connector-curvature="0"
       sodipodi:nodetypes="cccccccccc" />
    <path
       style="fill:#ffffff;fill-opacity:1;stroke:#000000;stroke-width:0.47720703px;stroke-linecap:butt;stroke-linejoin:miter;stroke-opacity:1"
       d="m 821.57633,267.04508 c 1.56206,0.434 2.64919,1.59869 3.06625,5.00154 l -0.65052,4.93106 c -1.78706,0.44508 -2.39405,3.93305 -0.5727,4.78466 l -0.5285,3.85018 c -0.35465,0.32299 -0.72358,0.64107 -0.19964,1.26565 l -0.26984,2.69369 -3.53733,7.26283 c -0.44501,0.97902 -0.82909,1.82206 -1.56227,1.80509 1.55889,-11.83623 2.92489,-20.9853 4.25455,-31.5947 z"
       id="path3895-2-6-0-0"
       inkscape:connector-curvature="0"
       sodipodi:nodetypes="cccccccccc" />
    <path
       style="fill:#ffffff;fill-opacity:1;stroke:#000000;stroke-width:0.47720703px;stroke-linecap:butt;stroke-linejoin:miter;stroke-opacity:1"
       d="m 883.572,265.97542 c 1.54236,-0.49948 3.09156,-0.12753 5.3162,2.48099 l 2.17696,4.47206 c -1.24522,1.35687 0.17215,4.60116 2.16114,4.30701 l 1.68261,3.50316 c -0.11771,0.46502 -0.25002,0.93383 0.5315,1.16586 l 1.26055,2.39578 1.05492,8.00929 c 0.16874,1.06209 0.31332,1.97715 -0.30763,2.36735 -5.2276,-10.73306 -9.13407,-19.11822 -13.87625,-28.7015 z"
       id="path3895-2-6-8-0"
       inkscape:connector-curvature="0"
       sodipodi:nodetypes="cccccccccc" />
    <rect
       style="fill:#ffffff;fill-opacity:1;stroke:#190000;stroke-width:2;stroke-linecap:butt;stroke-linejoin:round;stroke-miterlimit:4;stroke-opacity:1;stroke-dasharray:none;stroke-dashoffset:0"
       id="rect2987-7-5-4-1-62"
       width="36.103344"
       height="36.103344"
       x="999.73584"
       y="237.83493" />
    <path
       style="fill:#ffffff;fill-opacity:1;stroke:#000000;stroke-width:0.47720703px;stroke-linecap:butt;stroke-linejoin:miter;stroke-opacity:1"
       d="m 1018.0044,261.21445 c -1.4484,0.72819 -2.2895,2.08131 -2.0399,5.50052 l 1.5929,4.71185 c 1.8394,0.0907 3.1101,3.39514 1.4881,4.58325 l 1.2639,3.67503 c 0.4105,0.24821 0.834,0.48886 0.4409,1.20305 l 0.7862,2.59049 4.8765,6.4406 c 0.6261,0.87437 1.1662,1.62708 1.8822,1.46849 -3.8209,-11.3105 -6.9323,-20.02203 -10.2908,-30.17328 z"
       id="path3895-2-1-5-7-6-9"
       inkscape:connector-curvature="0"
       sodipodi:nodetypes="cccccccccc" />
    <rect
       style="fill:#ffffff;fill-opacity:1;stroke:#190000;stroke-width:2;stroke-linecap:butt;stroke-linejoin:round;stroke-miterlimit:4;stroke-opacity:1;stroke-dasharray:none;stroke-dashoffset:0"
       id="rect2987-7-5-4-1-7-7"
       width="36.103344"
       height="36.103344"
       x="933.18262"
       y="237.93925" />
    <rect
       style="fill:#ffffff;fill-opacity:1;stroke:#190000;stroke-width:2;stroke-linecap:butt;stroke-linejoin:round;stroke-miterlimit:4;stroke-opacity:1;stroke-dasharray:none;stroke-dashoffset:0"
       id="rect2987-0-6-7-0-3"
       width="36.103344"
       height="36.103344"
       x="57.895679"
       y="759.39612"
       transform="matrix(0.50610352,-0.86247274,0.86247274,0.50610352,0,0)" />
    <rect
       style="fill:#ffffff;fill-opacity:1;stroke:#190000;stroke-width:2;stroke-linecap:butt;stroke-linejoin:round;stroke-miterlimit:4;stroke-opacity:1;stroke-dasharray:none;stroke-dashoffset:0"
       id="rect2987-0-6-7-0-6-8"
       width="36.103344"
       height="36.103344"
       x="510.92923"
       y="911.56586"
       transform="matrix(0.73766653,-0.67516523,0.67516523,0.73766653,0,0)" />
    <path
       style="fill:#ffffff;fill-opacity:1;stroke:#000000;stroke-width:1px;stroke-linecap:butt;stroke-linejoin:miter;stroke-opacity:1"
       d="m 1082.9294,256.79305 c 3.1584,58.11467 3.1584,58.11467 3.1584,58.11467"
       id="path4144-0-1"
       inkscape:connector-curvature="0" />
    <path
       style="fill:#ffffff;fill-opacity:1;stroke:#000000;stroke-width:0.47720703px;stroke-linecap:butt;stroke-linejoin:miter;stroke-opacity:1"
       d="m 1086.1708,264.19787 c 1.0157,1.26362 1.2195,2.84376 -0.4265,5.85109 l -3.4045,3.626 c -1.7112,-0.6808 -4.2387,1.79838 -3.2559,3.55246 l -2.675,2.81919 c -0.4765,0.0555 -0.9617,0.0987 -0.9004,0.91161 l -1.7903,2.03066 -7.1095,3.83627 c -0.9324,0.53572 -1.7362,0.99643 -2.3218,0.55503 8.1699,-8.70513 14.6158,-15.34003 21.8839,-23.18231 z"
       id="path3895-2-6-8-8-6-9"
       inkscape:connector-curvature="0"
       sodipodi:nodetypes="cccccccccc" />
    <rect
       style="fill:#ffffff;fill-opacity:1;stroke:#190000;stroke-width:2;stroke-linecap:butt;stroke-linejoin:round;stroke-miterlimit:4;stroke-opacity:1;stroke-dasharray:none;stroke-dashoffset:0"
       id="rect2987-7-5-4-1-6-8"
       width="36.103344"
       height="36.103344"
       x="1066.7034"
       y="237.09387" />
    <path
       style="fill:#ffffff;fill-opacity:1;stroke:#000000;stroke-width:0.47720703px;stroke-linecap:butt;stroke-linejoin:miter;stroke-opacity:1"
       d="m 1091.8128,269.517 c -1.3402,-0.91226 -2.9315,-0.99 -5.7988,0.88939 l -3.3445,3.68144 c 0.8144,1.6518 -1.4564,4.36795 -3.2829,3.52746 l -2.5981,2.89019 c -0.018,0.47937 -0.022,0.96646 -0.8373,0.96986 l -1.8823,1.94575 -3.2601,7.3914 c -0.4601,0.97203 -0.8556,1.80978 -0.3691,2.35857 8.0295,-8.83475 14.1322,-15.78669 21.3731,-23.65406 z"
       id="path3895-2-1-5-7-6-4-82"
       inkscape:connector-curvature="0"
       sodipodi:nodetypes="cccccccccc" />
    <rect
       style="fill:#ffffff;fill-opacity:1;stroke:#190000;stroke-width:2;stroke-linecap:butt;stroke-linejoin:round;stroke-miterlimit:4;stroke-opacity:1;stroke-dasharray:none;stroke-dashoffset:0"
       id="rect2987-0-6-7-0-6-2-5"
       width="36.103344"
       height="36.103344"
       x="313.2074"
       y="1065.7389"
       transform="matrix(0.55646445,-0.83087142,0.83087142,0.55646445,0,0)" />
    <path
       style="fill:#ffffff;fill-opacity:1;stroke:#000000;stroke-width:1px;stroke-linecap:butt;stroke-linejoin:miter;stroke-opacity:1"
       d="m 1151.4575,256.36882 c 3.1584,58.11467 3.1584,58.11467 3.1584,58.11467"
       id="path4144-0-5-5"
       inkscape:connector-curvature="0" />
    <path
       style="fill:#ffffff;fill-opacity:1;stroke:#000000;stroke-width:0.47720703px;stroke-linecap:butt;stroke-linejoin:miter;stroke-opacity:1"
       d="m 1145.4781,265.55465 c 1.5979,-0.27384 3.078,0.31578 4.9069,3.21556 l 1.5152,4.73736 c -1.4264,1.1649 -0.4875,4.5785 1.5232,4.57174 l 1.1644,3.70774 c -0.183,0.44341 -0.3809,0.88849 0.3594,1.22987 l 0.9051,2.55139 -0.101,8.07783 c 0.015,1.07531 0.027,2.00164 -0.643,2.29905 -3.6394,-11.37019 -6.3069,-20.22772 -9.6302,-30.39054 z"
       id="path3895-2-6-8-8-6-6-7"
       inkscape:connector-curvature="0"
       sodipodi:nodetypes="cccccccccc" />
    <rect
       style="fill:#ffffff;fill-opacity:1;stroke:#190000;stroke-width:2;stroke-linecap:butt;stroke-linejoin:round;stroke-miterlimit:4;stroke-opacity:1;stroke-dasharray:none;stroke-dashoffset:0"
       id="rect2987-7-5-4-1-6-7-6"
       width="36.103344"
       height="36.103344"
       x="1135.2314"
       y="236.66965" />
    <path
       style="fill:#ffffff;fill-opacity:1;stroke:#000000;stroke-width:0.47720703px;stroke-linecap:butt;stroke-linejoin:miter;stroke-opacity:1"
       d="m 1152.8684,263.20757 c -1.4485,0.72819 -2.2896,2.08131 -2.04,5.50052 l 1.5929,4.71185 c 1.8394,0.0907 3.1102,3.39514 1.4881,4.58325 l 1.2639,3.67503 c 0.4105,0.24821 0.834,0.48886 0.4409,1.20305 l 0.7862,2.59049 4.8765,6.4406 c 0.6261,0.87437 1.1662,1.62708 1.8822,1.46849 -3.8209,-11.3105 -6.9323,-20.02203 -10.2907,-30.17328 z"
       id="path3895-2-1-5-7-6-4-8-3"
       inkscape:connector-curvature="0"
       sodipodi:nodetypes="cccccccccc" />
    <rect
       style="fill:#ffffff;fill-opacity:1;stroke:#190000;stroke-width:2;stroke-linecap:butt;stroke-linejoin:round;stroke-miterlimit:4;stroke-opacity:1;stroke-dasharray:none;stroke-dashoffset:0"
       id="rect2987-0-6-7-0-6-2-3-1"
       width="36.103344"
       height="36.103344"
       x="719.16101"
       y="930.72107"
       transform="matrix(0.80392876,-0.5947256,0.5947256,0.80392876,0,0)" />
    <path
       style="fill:#ffffff;fill-opacity:1;stroke:#000000;stroke-width:1px;stroke-linecap:butt;stroke-linejoin:miter;stroke-opacity:1"
       d="m 1211.0854,255.96971 c 3.1585,58.11467 3.1585,58.11467 3.1585,58.11467"
       id="path4144-0-5-4-7"
       inkscape:connector-curvature="0" />
    <path
       style="fill:#ffffff;fill-opacity:1;stroke:#000000;stroke-width:0.47720703px;stroke-linecap:butt;stroke-linejoin:miter;stroke-opacity:1"
       d="m 1205.7377,261.99713 c 1.5979,-0.27384 3.0781,0.31578 4.9069,3.21556 l 1.5152,4.73736 c -1.4264,1.1649 -0.4874,4.5785 1.5232,4.57174 l 1.1645,3.70774 c -0.183,0.44341 -0.381,0.88849 0.3593,1.22987 l 0.9051,2.55139 -0.101,8.07783 c 0.015,1.07531 0.027,2.00164 -0.6429,2.29905 -3.6394,-11.37019 -6.3069,-20.22772 -9.6303,-30.39054 z"
       id="path3895-2-6-8-8-6-6-4-4"
       inkscape:connector-curvature="0"
       sodipodi:nodetypes="cccccccccc" />
    <rect
       style="fill:#ffffff;fill-opacity:1;stroke:#190000;stroke-width:2;stroke-linecap:butt;stroke-linejoin:round;stroke-miterlimit:4;stroke-opacity:1;stroke-dasharray:none;stroke-dashoffset:0"
       id="rect2987-7-5-4-1-6-7-9-69"
       width="36.103344"
       height="36.103344"
       x="1194.8594"
       y="236.27054" />
    <path
       style="fill:#ffffff;fill-opacity:1;stroke:#000000;stroke-width:0.47720703px;stroke-linecap:butt;stroke-linejoin:miter;stroke-opacity:1"
       d="m 1213.128,259.65005 c -1.4485,0.72819 -2.2896,2.08131 -2.0399,5.50052 l 1.5928,4.71185 c 1.8394,0.0907 3.1102,3.39514 1.4882,4.58325 l 1.2639,3.67503 c 0.4104,0.24821 0.834,0.48886 0.4409,1.20305 l 0.7862,2.59049 4.8765,6.4406 c 0.626,0.87437 1.1661,1.62708 1.8821,1.46849 -3.8208,-11.3105 -6.9322,-20.02203 -10.2907,-30.17328 z"
       id="path3895-2-1-5-7-6-4-8-0-7"
       inkscape:connector-curvature="0"
       sodipodi:nodetypes="cccccccccc" />
    <rect
       style="fill:#ffffff;fill-opacity:1;stroke:#190000;stroke-width:2;stroke-linecap:butt;stroke-linejoin:round;stroke-miterlimit:4;stroke-opacity:1;stroke-dasharray:none;stroke-dashoffset:0"
       id="rect2987-0-6-7-0-6-2-3-0-5"
       width="36.103344"
       height="36.103344"
       x="741.1756"
       y="982.8714"
       transform="matrix(0.79090481,-0.6119392,0.6119392,0.79090481,0,0)" />
    <rect
       style="fill:#ffffff;fill-opacity:1;stroke:#190000;stroke-width:2;stroke-linecap:butt;stroke-linejoin:round;stroke-miterlimit:4;stroke-opacity:1;stroke-dasharray:none;stroke-dashoffset:0"
       id="rect2987-7-5-4-1-6-7-9-6-5"
       width="36.103344"
       height="36.103344"
       x="1253.8193"
       y="236.27054" />
  </g>
</svg>
