<?xml version="1.0" encoding="UTF-8" standalone="no"?>
<!-- Created with Inkscape (http://www.inkscape.org/) -->

<svg
   xmlns:dc="http://purl.org/dc/elements/1.1/"
   xmlns:cc="http://creativecommons.org/ns#"
   xmlns:rdf="http://www.w3.org/1999/02/22-rdf-syntax-ns#"
   xmlns:svg="http://www.w3.org/2000/svg"
   xmlns="http://www.w3.org/2000/svg"
   xmlns:sodipodi="http://sodipodi.sourceforge.net/DTD/sodipodi-0.dtd"
   xmlns:inkscape="http://www.inkscape.org/namespaces/inkscape"
   width="744.09448819"
   height="1052.3622047"
   id="svg2"
   version="1.1"
   inkscape:version="0.48.4 r9939"
   sodipodi:docname="New document 1">
  <defs
     id="defs4" />
  <sodipodi:namedview
     id="base"
     pagecolor="#ffffff"
     bordercolor="#666666"
     borderopacity="1.0"
     inkscape:pageopacity="0.0"
     inkscape:pageshadow="2"
     inkscape:zoom="1.1194044"
     inkscape:cx="269.9076"
     inkscape:cy="741.02611"
     inkscape:document-units="px"
     inkscape:current-layer="layer1"
     showgrid="false"
     inkscape:window-width="1366"
     inkscape:window-height="760"
     inkscape:window-x="0"
     inkscape:window-y="0"
     inkscape:window-maximized="1" />
  <metadata
     id="metadata7">
    <rdf:RDF>
      <cc:Work
         rdf:about="">
        <dc:format>image/svg+xml</dc:format>
        <dc:type
           rdf:resource="http://purl.org/dc/dcmitype/StillImage" />
        <dc:title></dc:title>
      </cc:Work>
    </rdf:RDF>
  </metadata>
  <g
     inkscape:label="Layer 1"
     inkscape:groupmode="layer"
     id="layer1">
    <path
       style="fill:none;stroke:#000000;stroke-width:1px;stroke-linecap:butt;stroke-linejoin:miter;stroke-opacity:1"
       d="m 73.906706,266.23487 c 0.31584,45.16521 0.31584,45.16521 0.31584,45.16521"
       id="path4134"
       inkscape:connector-curvature="0" />
    <path
       style="fill:none;stroke:#000000;stroke-width:1px;stroke-linecap:butt;stroke-linejoin:miter;stroke-opacity:1"
       d="m 137.07483,263.70815 c 0,55.58795 0,55.58795 0,55.58795"
       id="path4136"
       inkscape:connector-curvature="0" />
    <path
       style="fill:none;stroke:#000000;stroke-width:1px;stroke-linecap:butt;stroke-linejoin:miter;stroke-opacity:1"
       d="m 260.25267,262.44479 c 0.63168,53.6929 0.63168,53.6929 0.63168,53.6929"
       id="path4142"
       inkscape:connector-curvature="0" />
    <path
       style="fill:none;stroke:#000000;stroke-width:1px;stroke-linecap:butt;stroke-linejoin:miter;stroke-opacity:1"
       d="m 195.50535,268.44576 c 1.5792,55.90379 1.5792,55.90379 1.5792,55.90379"
       id="path4140"
       inkscape:connector-curvature="0" />
    <path
       style="fill:none;stroke:#000000;stroke-width:0.47720703px;stroke-linecap:butt;stroke-linejoin:miter;stroke-opacity:1"
       d="m 200.52036,269.82722 c -1.62071,0.0407 -2.95866,0.9057 -4.19152,4.10467 l -0.56942,4.94109 c 1.62497,0.86671 1.36462,4.39751 -0.60926,4.78014 l -0.42463,3.86302 c 0.26537,0.3996 0.54575,0.79793 -0.11447,1.27617 l -0.394,2.67835 1.66295,7.90544 c 0.19325,1.0579 0.3606,1.96908 1.07586,2.1311 1.36928,-11.85966 2.27153,-21.06604 3.56449,-31.67998 z"
       id="path3895-2-1-5-2"
       inkscape:connector-curvature="0"
       sodipodi:nodetypes="cccccccccc" />
    <path
       style="fill:none;stroke:#000000;stroke-width:0.47720703px;stroke-linecap:butt;stroke-linejoin:miter;stroke-opacity:1"
       d="m 144.14225,268.65654 c -1.52299,-0.55575 -3.08479,-0.24089 -5.40365,2.28423 l -2.33961,4.38919 c 1.1946,1.40165 -0.34087,4.59174 -2.31771,4.22481 l -1.81003,3.43905 c 0.10057,0.46903 0.21558,0.94238 -0.57392,1.14558 l -1.34761,2.34791 -1.34811,7.96518 c -0.20765,1.05517 -0.38565,1.96433 0.22056,2.37706 5.61791,-10.53402 9.82944,-18.77019 14.92008,-28.17301 z"
       id="path3895-2-1-5-4"
       inkscape:connector-curvature="0"
       sodipodi:nodetypes="cccccccccc" />
    <path
       style="fill:none;stroke:#000000;stroke-width:0.47720703px;stroke-linecap:butt;stroke-linejoin:miter;stroke-opacity:1"
       d="m 261.80948,264.34813 c -1.3295,0.9278 -1.96848,2.38727 -1.23257,5.73567 l 2.25014,4.43571 c 1.83349,-0.17324 3.56364,2.9156 2.12814,4.3234 l 1.77633,3.45658 c 0.44175,0.18698 0.89532,0.3646 0.60837,1.12766 l 1.1485,2.45147 5.7472,5.67724 c 0.74466,0.77588 1.3868,1.44364 2.0728,1.18431 -5.39868,-10.64804 -9.72361,-18.82523 -14.49891,-28.39204 z"
       id="path3895-2-1-5-7"
       inkscape:connector-curvature="0"
       sodipodi:nodetypes="cccccccccc" />
    <path
       style="fill:none;stroke:#000000;stroke-width:1px;stroke-linecap:butt;stroke-linejoin:miter;stroke-opacity:1"
       d="m 387.2206,259.28638 c 3.15841,58.11467 3.15841,58.11467 3.15841,58.11467"
       id="path4144"
       inkscape:connector-curvature="0" />
    <path
       style="fill:none;stroke:#000000;stroke-width:0.47720703px;stroke-linecap:butt;stroke-linejoin:miter;stroke-opacity:1"
       d="m 381.87287,265.3138 c 1.59793,-0.27384 3.07804,0.31578 4.90688,3.21556 l 1.51523,4.73736 c -1.42642,1.1649 -0.48745,4.5785 1.52316,4.57174 l 1.16448,3.70774 c -0.18299,0.44341 -0.38096,0.88849 0.35935,1.22987 l 0.90508,2.55139 -0.10101,8.07783 c 0.0152,1.07531 0.0274,2.00164 -0.64293,2.29905 -3.63939,-11.37019 -6.3069,-20.22772 -9.63024,-30.39054 z"
       id="path3895-2-6-8-8"
       inkscape:connector-curvature="0"
       sodipodi:nodetypes="cccccccccc" />
    <path
       style="fill:none;stroke:#000000;stroke-width:0.47720703px;stroke-linecap:butt;stroke-linejoin:miter;stroke-opacity:1"
       d="m 77.918304,269.31854 c -1.616968,-0.11736 -3.032803,0.61324 -4.571363,3.67693 l -1.047945,4.86214 c 1.532827,1.02085 0.929843,4.50951 -1.071915,4.69807 l -0.798853,3.8033 c 0.225186,0.42355 0.46545,0.84729 -0.238206,1.25896 l -0.652982,2.62724 0.885098,8.02982 c 0.08935,1.07169 0.167113,1.99484 0.863195,2.22575 2.517827,-11.66992 4.312423,-20.74466 6.632971,-31.18221 z"
       id="path3895-2-1-5"
       inkscape:connector-curvature="0"
       sodipodi:nodetypes="cccccccccc" />
    <path
       style="fill:none;stroke:#000000;stroke-width:2;stroke-linecap:butt;stroke-linejoin:miter;stroke-miterlimit:4;stroke-opacity:1;stroke-dasharray:none"
       d="m 35.286621,257.29654 c 246.607829,-0.40647 193.821009,1.28369 428.108409,-2.21088"
       id="path3757"
       inkscape:connector-curvature="0"
       sodipodi:nodetypes="cc" />
    <rect
       style="fill:#ffffff;fill-opacity:1;stroke:#190000;stroke-width:2;stroke-linecap:butt;stroke-linejoin:round;stroke-miterlimit:4;stroke-opacity:1;stroke-dasharray:none;stroke-dashoffset:0"
       id="rect2987-7"
       width="36.103344"
       height="36.103344"
       x="118.18149"
       y="239.69154" />
    <rect
       style="fill:#ffffff;fill-opacity:1;stroke:#190000;stroke-width:2;stroke-linecap:butt;stroke-linejoin:round;stroke-miterlimit:4;stroke-opacity:1;stroke-dasharray:none;stroke-dashoffset:0"
       id="rect2987-0"
       width="36.103344"
       height="36.103344"
       x="-191.61191"
       y="290.32645"
       transform="matrix(0.60991684,-0.79246542,0.79246542,0.60991684,0,0)" />
    <rect
       style="fill:#ffffff;fill-opacity:1;stroke:#190000;stroke-width:2;stroke-linecap:butt;stroke-linejoin:round;stroke-miterlimit:4;stroke-opacity:1;stroke-dasharray:none;stroke-dashoffset:0"
       id="rect2987-7-5"
       width="36.103344"
       height="36.103344"
       x="180.21286"
       y="240.14917" />
    <rect
       style="fill:#ffffff;fill-opacity:1;stroke:#190000;stroke-width:2;stroke-linecap:butt;stroke-linejoin:round;stroke-miterlimit:4;stroke-opacity:1;stroke-dasharray:none;stroke-dashoffset:0"
       id="rect2987-7-5-4"
       width="36.103344"
       height="36.103344"
       x="242.74611"
       y="239.7025" />
    <rect
       style="fill:#ffffff;fill-opacity:1;stroke:#190000;stroke-width:2;stroke-linecap:butt;stroke-linejoin:round;stroke-miterlimit:4;stroke-opacity:1;stroke-dasharray:none;stroke-dashoffset:0"
       id="rect2987"
       width="36.103344"
       height="36.103344"
       x="55.758667"
       y="239.66962" />
    <rect
       style="fill:#ffffff;fill-opacity:1;stroke:#190000;stroke-width:2;stroke-linecap:butt;stroke-linejoin:round;stroke-miterlimit:4;stroke-opacity:1;stroke-dasharray:none;stroke-dashoffset:0"
       id="rect2987-0-6"
       width="36.103344"
       height="36.103344"
       x="-138.08458"
       y="351.5751"
       transform="matrix(0.65884431,-0.75227932,0.75227932,0.65884431,0,0)" />
    <rect
       style="fill:#ffffff;fill-opacity:1;stroke:#190000;stroke-width:2;stroke-linecap:butt;stroke-linejoin:round;stroke-miterlimit:4;stroke-opacity:1;stroke-dasharray:none;stroke-dashoffset:0"
       id="rect2987-0-6-7"
       width="36.103344"
       height="36.103344"
       x="-92.445282"
       y="400.46738"
       transform="matrix(0.65884431,-0.75227932,0.75227932,0.65884431,0,0)" />
    <path
       style="fill:none;stroke:#000000;stroke-width:1px;stroke-linecap:butt;stroke-linejoin:miter;stroke-opacity:1"
       d="m 44.252423,231.77713 c -3.360146,-0.50113 -5.920388,-2.64396 -7.662254,-9.61373 l 0.08561,-10.42235 c 3.60219,-1.38489 3.968154,-8.79484 -0.0386,-10.09786 l 0.10966,-8.14309 c 0.654581,-0.76286 1.340079,-1.51919 0.08993,-2.68348 l -0.131084,-5.67143 5.490108,-16.01365 c 0.67388,-2.15044 1.255993,-4.00243 2.785167,-4.15556 -0.200184,25.01653 -0.689785,44.39499 -0.728537,66.80115 z"
       id="path3895-2"
       inkscape:connector-curvature="0"
       sodipodi:nodetypes="cccccccccc" />
    <path
       style="fill:none;stroke:#000000;stroke-width:1px;stroke-linecap:butt;stroke-linejoin:miter;stroke-opacity:1"
       d="m 28.004506,231.61041 c 3.360146,-0.50113 5.920388,-2.64396 7.662254,-9.61373 l -0.08561,-10.42235 c -3.60219,-1.38489 -3.968154,-8.79484 0.0386,-10.09786 l -0.10966,-8.14309 c -0.654581,-0.76286 -1.340079,-1.51919 -0.08993,-2.68348 l 0.131084,-5.67143 -5.490108,-16.01365 c -0.67388,-2.15044 -1.255993,-4.00243 -2.785167,-4.15556 0.200184,25.01653 0.689785,44.39499 0.728537,66.80115 z"
       id="path3895-2-1"
       inkscape:connector-curvature="0"
       sodipodi:nodetypes="cccccccccc" />
    <path
       style="fill:none;stroke:#000000;stroke-width:0.47720703px;stroke-linecap:butt;stroke-linejoin:miter;stroke-opacity:1"
       d="m 70.369812,267.54506 c 1.512358,0.58407 2.48089,1.8491 2.564541,5.2764 l -1.127673,4.84426 c -1.821916,0.26891 -2.765725,3.68118 -1.035967,4.70613 l -0.90098,3.78041 c -0.384429,0.28691 -0.782574,0.56755 -0.321958,1.24019 l -0.530903,2.6546 -4.227874,6.88379 c -0.538242,0.93102 -1.002602,1.73265 -1.730647,1.64435 2.704257,-11.62813 4.954824,-20.60067 7.311461,-31.03013 z"
       id="path3895-2-6"
       inkscape:connector-curvature="0"
       sodipodi:nodetypes="cccccccccc" />
    <path
       style="fill:none;stroke:#000000;stroke-width:0.47720703px;stroke-linecap:butt;stroke-linejoin:miter;stroke-opacity:1"
       d="m 137.36818,264.88336 c 1.29454,0.97597 1.87955,2.4579 1.02127,5.77705 l -2.41139,4.35015 c -1.8259,-0.24039 -3.66823,2.78288 -2.28535,4.24241 l -1.90197,3.38907 c -0.44832,0.17064 -0.90811,0.3315 -0.64934,1.10458 l -1.23768,2.40767 -5.95166,5.46253 c -0.77267,0.748 -1.43883,1.39178 -2.11485,1.10745 5.78577,-10.44276 10.40784,-18.45575 15.53097,-27.84091 z"
       id="path3895-2-6-3"
       inkscape:connector-curvature="0"
       sodipodi:nodetypes="cccccccccc" />
    <path
       style="fill:none;stroke:#000000;stroke-width:0.47720703px;stroke-linecap:butt;stroke-linejoin:miter;stroke-opacity:1"
       d="m 192.83502,268.79735 c 1.56206,0.434 2.64919,1.59869 3.06625,5.00154 l -0.65052,4.93106 c -1.78706,0.44508 -2.39405,3.93305 -0.5727,4.78466 l -0.5285,3.85018 c -0.35465,0.32299 -0.72358,0.64107 -0.19964,1.26565 l -0.26984,2.69369 -3.53733,7.26283 c -0.44501,0.97902 -0.82909,1.82206 -1.56227,1.80509 1.55889,-11.83623 2.92489,-20.9853 4.25455,-31.5947 z"
       id="path3895-2-6-0"
       inkscape:connector-curvature="0"
       sodipodi:nodetypes="cccccccccc" />
    <path
       style="fill:none;stroke:#000000;stroke-width:0.47720703px;stroke-linecap:butt;stroke-linejoin:miter;stroke-opacity:1"
       d="m 254.83069,267.72769 c 1.54236,-0.49948 3.09156,-0.12753 5.3162,2.48099 l 2.17696,4.47206 c -1.24522,1.35687 0.17215,4.60116 2.16114,4.30701 l 1.68261,3.50316 c -0.11771,0.46502 -0.25002,0.93383 0.5315,1.16586 l 1.26055,2.39578 1.05492,8.00929 c 0.16874,1.06209 0.31332,1.97715 -0.30763,2.36735 -5.2276,-10.73306 -9.13407,-19.11822 -13.87625,-28.7015 z"
       id="path3895-2-6-8"
       inkscape:connector-curvature="0"
       sodipodi:nodetypes="cccccccccc" />
    <rect
       style="fill:#ffffff;fill-opacity:1;stroke:#190000;stroke-width:2;stroke-linecap:butt;stroke-linejoin:round;stroke-miterlimit:4;stroke-opacity:1;stroke-dasharray:none;stroke-dashoffset:0"
       id="rect2987-7-5-4-1"
       width="36.103344"
       height="36.103344"
       x="370.99448"
       y="239.5872" />
    <path
       style="fill:none;stroke:#000000;stroke-width:0.47720703px;stroke-linecap:butt;stroke-linejoin:miter;stroke-opacity:1"
       d="m 389.26315,262.96672 c -1.44849,0.72819 -2.28957,2.08131 -2.03994,5.50052 l 1.59285,4.71185 c 1.83942,0.0907 3.11018,3.39514 1.48816,4.58325 l 1.26389,3.67503 c 0.41048,0.24821 0.834,0.48886 0.4409,1.20305 l 0.78621,2.59049 4.87649,6.4406 c 0.62608,0.87437 1.16615,1.62708 1.88218,1.46849 -3.82087,-11.3105 -6.93227,-20.02203 -10.29074,-30.17328 z"
       id="path3895-2-1-5-7-6"
       inkscape:connector-curvature="0"
       sodipodi:nodetypes="cccccccccc" />
    <rect
       style="fill:#ffffff;fill-opacity:1;stroke:#190000;stroke-width:2;stroke-linecap:butt;stroke-linejoin:round;stroke-miterlimit:4;stroke-opacity:1;stroke-dasharray:none;stroke-dashoffset:0"
       id="rect2987-7-5-4-1-7"
       width="36.103344"
       height="36.103344"
       x="304.44125"
       y="239.69153" />
    <rect
       style="fill:#ffffff;fill-opacity:1;stroke:#190000;stroke-width:2;stroke-linecap:butt;stroke-linejoin:round;stroke-miterlimit:4;stroke-opacity:1;stroke-dasharray:none;stroke-dashoffset:0"
       id="rect2987-0-6-7-0"
       width="36.103344"
       height="36.103344"
       x="-261.82379"
       y="218.01077"
       transform="matrix(0.50610352,-0.86247274,0.86247274,0.50610352,0,0)" />
    <rect
       style="fill:#ffffff;fill-opacity:1;stroke:#190000;stroke-width:2;stroke-linecap:butt;stroke-linejoin:round;stroke-miterlimit:4;stroke-opacity:1;stroke-dasharray:none;stroke-dashoffset:0"
       id="rect2987-0-6-7-0-6"
       width="36.103344"
       height="36.103344"
       x="45.944736"
       y="488.35422"
       transform="matrix(0.73766653,-0.67516523,0.67516523,0.73766653,0,0)" />
  </g>
</svg>
